<mxfile host="app.diagrams.net" modified="2021-04-05T03:11:43.159Z" agent="5.0 (X11; Linux x86_64) AppleWebKit/537.36 (KHTML, like Gecko) Chrome/89.0.4389.90 Safari/537.36" etag="fqIwfdomoYAKZRx3SENb" version="14.5.7" type="github">
  <diagram id="hzElFQ3jIHI05bGVzp9D" name="Page-1">
    <mxGraphModel dx="796" dy="494" grid="1" gridSize="10" guides="1" tooltips="1" connect="1" arrows="1" fold="1" page="1" pageScale="1" pageWidth="850" pageHeight="1100" math="0" shadow="0">
      <root>
        <mxCell id="0" />
        <mxCell id="1" parent="0" />
        <mxCell id="qqvgEGSxbg7rWVNtocmB-1" value="" style="group" vertex="1" connectable="0" parent="1">
          <mxGeometry x="120" y="120" width="560" height="280" as="geometry" />
        </mxCell>
        <mxCell id="qqvgEGSxbg7rWVNtocmB-2" value="" style="rounded=0;whiteSpace=wrap;html=1;" vertex="1" parent="qqvgEGSxbg7rWVNtocmB-1">
          <mxGeometry width="560" height="280" as="geometry" />
        </mxCell>
        <mxCell id="qqvgEGSxbg7rWVNtocmB-3" value="" style="rounded=0;whiteSpace=wrap;html=1;" vertex="1" parent="qqvgEGSxbg7rWVNtocmB-1">
          <mxGeometry x="170" y="80" width="240" height="130" as="geometry" />
        </mxCell>
        <mxCell id="qqvgEGSxbg7rWVNtocmB-4" value="" style="group" vertex="1" connectable="0" parent="qqvgEGSxbg7rWVNtocmB-1">
          <mxGeometry x="230" y="100" width="160" height="20" as="geometry" />
        </mxCell>
        <mxCell id="qqvgEGSxbg7rWVNtocmB-5" value="" style="rounded=1;whiteSpace=wrap;html=1;" vertex="1" parent="qqvgEGSxbg7rWVNtocmB-4">
          <mxGeometry x="60" width="100" height="20" as="geometry" />
        </mxCell>
        <mxCell id="qqvgEGSxbg7rWVNtocmB-6" value="Login" style="text;html=1;strokeColor=none;fillColor=none;align=center;verticalAlign=middle;whiteSpace=wrap;rounded=0;" vertex="1" parent="qqvgEGSxbg7rWVNtocmB-4">
          <mxGeometry width="40" height="20" as="geometry" />
        </mxCell>
        <mxCell id="qqvgEGSxbg7rWVNtocmB-7" value="" style="group" vertex="1" connectable="0" parent="qqvgEGSxbg7rWVNtocmB-1">
          <mxGeometry x="230" y="130" width="160" height="20" as="geometry" />
        </mxCell>
        <mxCell id="qqvgEGSxbg7rWVNtocmB-8" value="" style="rounded=1;whiteSpace=wrap;html=1;" vertex="1" parent="qqvgEGSxbg7rWVNtocmB-7">
          <mxGeometry x="60" width="100" height="20" as="geometry" />
        </mxCell>
        <mxCell id="qqvgEGSxbg7rWVNtocmB-9" value="Password" style="text;html=1;strokeColor=none;fillColor=none;align=center;verticalAlign=middle;whiteSpace=wrap;rounded=0;" vertex="1" parent="qqvgEGSxbg7rWVNtocmB-7">
          <mxGeometry width="40" height="20" as="geometry" />
        </mxCell>
        <mxCell id="qqvgEGSxbg7rWVNtocmB-10" value="LOGIN" style="rounded=1;whiteSpace=wrap;html=1;" vertex="1" parent="qqvgEGSxbg7rWVNtocmB-1">
          <mxGeometry x="245" y="170" width="120" height="20" as="geometry" />
        </mxCell>
      </root>
    </mxGraphModel>
  </diagram>
</mxfile>
